# This file uses centimeters as units for non-parametric coordinates.

mtllib HollowCubeModel_Var1.mtl
g default
v -0.500000 -0.500000 0.500000
v 0.500000 -0.500000 0.500000
v -0.500000 0.500000 0.500000
v 0.500000 0.500000 0.500000
v -0.500000 0.500000 -0.500000
v 0.500000 0.500000 -0.500000
v -0.500000 -0.500000 -0.500000
v 0.500000 -0.500000 -0.500000
v -0.467467 0.467467 0.500000
v -0.462434 0.462434 -0.462434
v 0.462434 0.462434 -0.462434
v 0.467467 0.467467 0.500000
v -0.462434 -0.462434 -0.462434
v 0.462434 -0.462434 -0.462434
v -0.467467 -0.467467 0.500000
v 0.467467 -0.467467 0.500000
vt 0.375000 0.000000
vt 0.625000 0.000000
vt 0.375000 0.250000
vt 0.625000 0.250000
vt 0.375000 0.500000
vt 0.625000 0.500000
vt 0.375000 0.750000
vt 0.625000 0.750000
vt 0.375000 1.000000
vt 0.625000 1.000000
vt 0.875000 0.000000
vt 0.875000 0.250000
vt 0.125000 0.000000
vt 0.125000 0.250000
vt 0.375000 0.250000
vt 0.375000 0.500000
vt 0.625000 0.500000
vt 0.625000 0.250000
vt 0.375000 0.750000
vt 0.625000 0.750000
vt 0.375000 1.000000
vt 0.625000 1.000000
vt 0.625000 0.000000
vt 0.875000 0.250000
vt 0.875000 0.000000
vt 0.125000 0.000000
vt 0.125000 0.250000
vt 0.375000 0.000000
vt 0.625000 0.250000
vt 0.375000 0.250000
vt 0.375000 1.000000
vt 0.625000 1.000000
vt 0.625000 0.000000
vt 0.375000 0.000000
vn 0.000000 -0.999986 0.005229
vn 0.000000 -0.999986 0.005229
vn 0.000000 -0.999986 0.005229
vn 0.000000 -0.999986 0.005229
vn 0.000000 0.000000 1.000000
vn 0.000000 0.000000 1.000000
vn 0.000000 0.000000 1.000000
vn 0.000000 0.000000 1.000000
vn 0.000000 0.999986 0.005229
vn 0.000000 0.999986 0.005229
vn 0.000000 0.999986 0.005229
vn 0.000000 0.999986 0.005229
vn -0.999986 0.000000 0.005229
vn -0.999986 0.000000 0.005229
vn -0.999986 0.000000 0.005229
vn -0.999986 0.000000 0.005229
vn 0.999986 0.000000 0.005229
vn 0.999986 0.000000 0.005229
vn 0.999986 0.000000 0.005229
vn 0.999986 0.000000 0.005229
vn 0.000000 1.000000 0.000000
vn 0.000000 1.000000 0.000000
vn 0.000000 1.000000 0.000000
vn 0.000000 1.000000 0.000000
vn 0.000000 0.000000 -1.000000
vn 0.000000 0.000000 -1.000000
vn 0.000000 0.000000 -1.000000
vn 0.000000 0.000000 -1.000000
vn 0.000000 -1.000000 0.000000
vn 0.000000 -1.000000 0.000000
vn 0.000000 -1.000000 0.000000
vn 0.000000 -1.000000 0.000000
vn 1.000000 0.000000 0.000000
vn 1.000000 0.000000 0.000000
vn 1.000000 0.000000 0.000000
vn 1.000000 0.000000 0.000000
vn -1.000000 0.000000 0.000000
vn -1.000000 0.000000 0.000000
vn -1.000000 0.000000 0.000000
vn -1.000000 0.000000 0.000000
vn -0.000000 0.000000 1.000000
vn 0.000000 0.000000 1.000000
vn 0.000000 0.000000 1.000000
vn -0.000000 0.000000 1.000000
vn 0.000000 0.000000 1.000000
vn -0.000000 0.000000 1.000000
vn -0.000000 0.000000 1.000000
vn 0.000000 0.000000 1.000000
s off
g msh_HollowCubeModel_Mesh1
usemtl initialShadingGroup
f 9/30/1 10/5/2 11/6/3 12/29/4
f 10/5/5 13/7/6 14/8/7 11/6/8
f 13/7/9 15/31/10 16/32/11 14/8/12
f 16/33/13 12/29/14 11/12/15 14/11/16
f 13/13/17 10/14/18 9/30/19 15/34/20
f 3/15/21 4/18/22 6/17/23 5/16/24
f 5/16/25 6/17/26 8/20/27 7/19/28
f 7/19/29 8/20/30 2/22/31 1/21/32
f 2/23/33 8/25/34 6/24/35 4/18/36
f 7/26/37 1/28/38 3/15/39 5/27/40
s 1
f 4/4/41 3/3/42 9/30/43 12/29/44
f 1/9/45 2/10/46 16/32/47 15/31/48
f 2/2/46 4/4/41 12/29/44 16/33/47
f 3/3/42 1/1/45 15/34/48 9/30/43
